<?xml version="1.0" standalone="no"?>
<!DOCTYPE svg PUBLIC "-//W3C//DTD SVG 20010904//EN"
 "http://www.w3.org/TR/2001/REC-SVG-20010904/DTD/svg10.dtd">
<svg version="1.0" xmlns="http://www.w3.org/2000/svg"
 width="186.000000pt" height="186.000000pt" viewBox="0 0 186.000000 186.000000"
 preserveAspectRatio="xMidYMid meet">
<metadata>
Created by potrace 1.14, written by Peter Selinger 2001-2017
</metadata>
<g transform="translate(0.000000,186.000000) scale(0.100000,-0.100000)"
fill="#000000" stroke="none">
<path d="M532 1340 c-18 -11 -42 -36 -53 -55 -25 -42 -34 -43 -177 -15 -167
32 -238 23 -279 -39 -34 -51 -28 -68 10 -27 53 56 73 56 329 10 l88 -17 0 -98
c0 -91 -2 -100 -26 -129 l-26 -31 27 -25 c28 -25 28 -26 23 -128 -8 -148 -40
-202 -143 -242 -60 -23 -150 -16 -193 15 -18 12 -32 18 -32 12 0 -6 19 -23 42
-38 82 -51 208 -40 274 25 46 46 64 102 75 229 5 65 13 121 17 125 4 4 21 10
38 14 61 12 114 -59 168 -223 31 -92 58 -133 88 -133 19 0 19 1 -5 20 -18 14
-31 42 -47 101 -33 123 -56 169 -112 221 l-51 47 49 68 c85 119 120 151 167
155 l42 4 -29 12 c-61 27 -122 -19 -213 -160 -41 -64 -47 -69 -71 -63 -15 4
-29 9 -32 11 -6 6 -1 174 6 195 2 10 24 22 51 28 80 21 139 101 101 139 -18
18 -69 14 -106 -8z m86 -33 c3 -12 -9 -23 -40 -37 -79 -36 -101 -21 -48 31 34
34 82 38 88 6z m-168 -357 c0 -5 -4 -10 -10 -10 -5 0 -10 5 -10 10 0 6 5 10
10 10 6 0 10 -4 10 -10z m52 -12 c-12 -12 -35 -1 -27 12 3 5 13 6 21 3 10 -4
12 -9 6 -15z"/>
<path d="M1306 1204 c-3 -9 -6 -60 -6 -113 l0 -98 -32 -10 c-34 -10 -32 -13
20 -29 8 -2 12 -31 12 -96 0 -115 12 -138 70 -138 21 0 42 5 45 10 4 6 -10 10
-33 10 -50 0 -52 6 -52 126 l0 94 29 0 c43 0 47 17 6 24 l-35 7 0 109 c0 101
-9 142 -24 104z"/>
<path d="M1467 1053 c-13 -12 -7 -23 13 -23 11 0 20 7 20 15 0 15 -21 21 -33
8z"/>
<path d="M821 941 c-37 -34 -51 -69 -51 -122 0 -51 13 -75 50 -94 37 -19 67
-19 104 0 36 19 45 19 68 -2 17 -16 20 -15 46 4 15 11 45 43 67 71 22 28 45
51 52 51 7 1 24 -15 38 -34 34 -43 27 -75 -15 -75 -16 0 -32 5 -35 10 -9 14
-25 12 -25 -3 0 -27 37 -50 67 -42 72 18 81 63 23 130 -37 42 -39 49 -33 90 5
43 5 45 -19 45 -41 0 -53 -23 -38 -69 14 -44 8 -61 -47 -122 -41 -45 -56 -48
-79 -14 -12 19 -14 37 -9 77 8 62 -3 56 -29 -14 -20 -55 -66 -99 -95 -91 -33
8 -54 40 -54 81 0 76 53 132 123 132 18 0 29 4 25 10 -3 6 -28 10 -55 10 -39
0 -54 -5 -79 -29z m342 3 c3 -4 2 -16 -4 -26 -13 -24 -33 -10 -23 15 6 18 16
21 27 11z"/>
<path d="M1466 938 c-11 -42 -7 -193 6 -206 15 -15 64 -16 73 -2 4 6 -5 10
-20 10 -37 0 -48 37 -40 137 5 53 4 83 -3 83 -5 0 -12 -10 -16 -22z"/>
<path d="M1590 849 c0 -59 4 -110 9 -113 4 -3 11 32 14 77 3 45 9 89 12 98 8
22 57 31 95 18 45 -16 60 -54 60 -151 1 -133 16 -177 64 -178 16 0 14 3 -8 21
l-27 22 3 133 c3 128 2 134 -20 156 -20 20 -33 23 -112 24 l-90 2 0 -109z"/>
</g>
</svg>
